HIERARCHY
ROOT root
{
	OFFSET	0	13.1	24.9
	CHANNELS 6  Xposition Yposition Zposition Xrotation Yrotation Zrotation
	JOINT spine_1
	{
		OFFSET	0	9.99999	0
		CHANNELS 3  Xrotation Yrotation Zrotation
		JOINT spine_2
		{
			OFFSET	0	112	-10
			CHANNELS 3  Xrotation Yrotation Zrotation
			JOINT spine_3
			{
				OFFSET	0	206.5	19.3
				CHANNELS 3  Xrotation Yrotation Zrotation
				JOINT spine_4
				{
					OFFSET	0	110.4	14.6
					CHANNELS 3  Xrotation Yrotation Zrotation
					JOINT neck_1
					{
						OFFSET	0	71.8	-50.3
						CHANNELS 3  Xrotation Yrotation Zrotation
						JOINT neck_2
						{
							OFFSET	0	86.2	-25.8
							CHANNELS 3  Xrotation Yrotation Zrotation
							JOINT head_ee
							{
								OFFSET	0	179.8	-8.7
								CHANNELS 3  Xrotation Yrotation Zrotation
								End Site
								{
									OFFSET	1	0	0
								}
							}
						}
					}
					JOINT left_clavicle
					{
						OFFSET	-43.2	22.4	-70.8
						CHANNELS 3  Xrotation Yrotation Zrotation
						JOINT left_shoulder
						{
							OFFSET	-93.9	-5.79999	48.7
							CHANNELS 3  Xrotation Yrotation Zrotation
							JOINT left_elbow
							{
								OFFSET	-291.4	-30.8	15.2
								CHANNELS 3  Xrotation Yrotation Zrotation
								JOINT left_lowarm_twist
								{
									OFFSET	-110.7	-3.89999	13.6
									CHANNELS 3  Xrotation Yrotation Zrotation
									JOINT left_hand
									{
										OFFSET	-110.7	-3.89999	13.6
										CHANNELS 3  Xrotation Yrotation Zrotation
										JOINT left_ee
										{
											OFFSET	-80.8	-5.10001	12.1
											CHANNELS 3  Xrotation Yrotation Zrotation
											End Site
											{
												OFFSET	1	0	0
											}
										}
									}
								}
							}
						}
					}
					JOINT right_clavicle
					{
						OFFSET	43.2	22.4	-70.8
						CHANNELS 3  Xrotation Yrotation Zrotation
						JOINT right_shoulder
						{
							OFFSET	93.9	-5.79999	48.7
							CHANNELS 3  Xrotation Yrotation Zrotation
							JOINT right_elbow
							{
								OFFSET	291.4	-30.8	15.2
								CHANNELS 3  Xrotation Yrotation Zrotation
								JOINT right_lowarm_twist
								{
									OFFSET	110.7	-3.89999	13.6
									CHANNELS 3  Xrotation Yrotation Zrotation
									JOINT right_hand
									{
										OFFSET	110.7	-3.89999	13.6
										CHANNELS 3  Xrotation Yrotation Zrotation
										JOINT right_ee
										{
											OFFSET	80.8	-5.10001	12.1
											CHANNELS 3  Xrotation Yrotation Zrotation
											End Site
											{
												OFFSET	1	0	0
											}
										}
									}
								}
							}
						}
					}
				}
			}
		}
	}
	JOINT left_hip
	{
		OFFSET	-82.8	-127.5	0.300001
		CHANNELS 3  Xrotation Yrotation Zrotation
		JOINT left_knee
		{
			OFFSET	-28.2	-396.7	2.2
			CHANNELS 3  Xrotation Yrotation Zrotation
			JOINT left_ankle
			{
				OFFSET	-11.7	-411.3	35.4
				CHANNELS 3  Xrotation Yrotation Zrotation
				JOINT left_toes
				{
					OFFSET	0	-60	-88.6
					CHANNELS 3  Xrotation Yrotation Zrotation
					JOINT left_foot_ee
					{
						OFFSET	-22.5	-16.5	-42.2
						CHANNELS 3  Xrotation Yrotation Zrotation
						End Site
						{
							OFFSET	1	0	0
						}
					}
				}
			}
		}
	}
	JOINT right_hip
	{
		OFFSET	82.8	-127.5	0.300001
		CHANNELS 3  Xrotation Yrotation Zrotation
		JOINT right_knee
		{
			OFFSET	28.2	-396.7	2.2
			CHANNELS 3  Xrotation Yrotation Zrotation
			JOINT right_ankle
			{
				OFFSET	11.7	-411.3	35.4
				CHANNELS 3  Xrotation Yrotation Zrotation
				JOINT right_toes
				{
					OFFSET	0	-60	-88.6
					CHANNELS 3  Xrotation Yrotation Zrotation
					JOINT right_foot_ee
					{
						OFFSET	22.5	-16.5	-42.2
						CHANNELS 3  Xrotation Yrotation Zrotation
						End Site
						{
							OFFSET	1	0	0
						}
					}
				}
			}
		}
	}
}
MOTION
Frames: 14
Frame Time: 0.02
1372.05 701.618 -1475.22 -0.426013079438 60.3570362196 12.1915251974 1.89955 -1.03998 -6.85633 1.92547 -0.602654 -6.90827 1.99796 0.623891 -6.90639 1.93178 -0.471988 -6.91837 -3.65359 0.609783 13.9574 -3.01193 -9.70118 14.619 -0.0 0.0 -0.0 10.7144 6.60022 20.5959 -9.86298 -41.0333 70.4692 2.2553 -48.1621 1.00806 -23.576 -1.39679 2.6499 -1.85425 11.1155 -7.22478 -0.0 0.0 -0.0 -2.94223 -11.0811 3.70452 -19.5067 4.40379 -63.8825 1.114 28.8909 -0.286976 15.9421 -0.283685 2.01015 2.23543 8.34728 -11.6265 0.0 0.0 0.0 -19.5327 -4.31605 -10.3603 -12.7475 0.311541 1.92745 21.4519 6.89319 -2.90906 -37.4072 0.0 0.0 -0.0 0.0 -0.0 15.8995 -33.5121 -13.1172 -1.70188 -0.0663236 -0.252748 -7.28217 21.3013 -1.24795 7.26722 -0.0 -0.0 0.0 0.0 0.0 
1372.05 701.618 -1475.22 -0.427863167 60.4979214271 12.1936523892 1.89955 -1.03998 -6.85633 1.92547 -0.602654 -6.90827 1.99796 0.623891 -6.90639 1.93178 -0.471988 -6.91837 -3.65359 0.609783 13.9574 -3.01193 -9.70118 14.619 -0.0 0.0 -0.0 10.7144 6.60022 20.5959 -9.86298 -41.0333 70.4692 2.2553 -48.1621 1.00806 -23.576 -1.39679 2.6499 -1.85425 11.1155 -7.22478 -0.0 0.0 -0.0 -2.94223 -11.0811 3.70452 -19.5067 4.40379 -63.8825 1.114 28.8909 -0.286976 15.9421 -0.283685 2.01015 2.23543 8.34728 -11.6265 0.0 0.0 0.0 -19.5327 -4.31605 -10.3603 -12.7475 0.311541 1.92745 21.4519 6.89319 -2.90906 -37.4072 0.0 0.0 -0.0 0.0 -0.0 15.8995 -33.5121 -13.1172 -1.70188 -0.0663236 -0.252748 -7.28217 21.3013 -1.24795 7.26722 -0.0 -0.0 0.0 0.0 0.0 
1372.05 701.618 -1475.22 -0.423423515739 60.157434365 12.188542732 1.89955 -1.03998 -6.85633 1.92547 -0.602654 -6.90827 1.99796 0.623891 -6.90639 1.93178 -0.471988 -6.91837 -3.65359 0.609783 13.9574 -3.01193 -9.70118 14.619 -0.0 0.0 -0.0 10.7144 6.60022 20.5959 -9.86298 -41.0333 70.4692 2.2553 -48.1621 1.00806 -23.576 -1.39679 2.6499 -1.85425 11.1155 -7.22478 -0.0 0.0 -0.0 -2.94223 -11.0811 3.70452 -19.5067 4.40379 -63.8825 1.114 28.8909 -0.286976 15.9421 -0.283685 2.01015 2.23543 8.34728 -11.6265 0.0 0.0 0.0 -19.5327 -4.31605 -10.3603 -12.7475 0.311541 1.92745 21.4519 6.89319 -2.90906 -37.4072 0.0 0.0 -0.0 0.0 -0.0 15.8995 -33.5121 -13.1172 -1.70188 -0.0663236 -0.252748 -7.28217 21.3013 -1.24795 7.26722 -0.0 -0.0 0.0 0.0 0.0 
1372.05 701.618 -1475.22 -0.417759045614 59.7107466498 12.1819976638 1.89955 -1.03998 -6.85633 1.92547 -0.602654 -6.90827 1.99796 0.623891 -6.90639 1.93178 -0.471988 -6.91837 -3.65359 0.609783 13.9574 -3.01193 -9.70118 14.619 -0.0 0.0 -0.0 10.7144 6.60022 20.5959 -9.86298 -41.0333 70.4692 2.2553 -48.1621 1.00806 -23.576 -1.39679 2.6499 -1.85425 11.1155 -7.22478 -0.0 0.0 -0.0 -2.94223 -11.0811 3.70452 -19.5067 4.40379 -63.8825 1.114 28.8909 -0.286976 15.9421 -0.283685 2.01015 2.23543 8.34728 -11.6265 0.0 0.0 0.0 -19.5327 -4.31605 -10.3603 -12.7475 0.311541 1.92745 21.4519 6.89319 -2.90906 -37.4072 0.0 0.0 -0.0 0.0 -0.0 15.8995 -33.5121 -13.1172 -1.70188 -0.0663236 -0.252748 -7.28217 21.3013 -1.24795 7.26722 -0.0 -0.0 0.0 0.0 0.0 
1344.65549611 707.243 -1493.78180542 -4.0583714565 62.608589738 15.6528803899 1.7416 -1.16574 -7.18857 1.77003 -0.707187 -7.24775 1.86064 0.597858 -7.25753 1.78765 -0.552732 -7.26109 -5.42716 -1.94327 11.1556 -5.00264 -11.911 11.0485 -0.0 0.0 -0.0 10.6346 6.83689 20.4145 -8.67635 -42.9275 73.4735 1.84105 -42.3607 0.713422 -22.3407 -1.29729 2.52682 -1.18522 12.8518 -2.17201 -0.0 0.0 -0.0 -2.0674 -6.37823 2.98159 -13.2613 -1.17614 -62.905 0.886811 23.7156 -0.186202 17.6142 -0.280796 2.22369 2.67827 14.6052 -11.8491 0.0 0.0 0.0 -14.7417 -13.1586 -11.4956 -24.5577 0.213765 3.73377 16.258 10.8906 -2.26058 -33.8145 0.0 0.0 -0.0 0.0 -0.0 16.4681 -34.9164 -12.737 -2.96211 -0.110577 -0.441089 -7.92403 16.6553 -1.30294 13.1028 -0.0 -0.0 0.0 0.0 0.0 
1344.80135207 707.243 -1493.99526697 -3.9982563887 62.1620499664 15.58503744 1.7416 -1.16574 -7.18857 1.77003 -0.707187 -7.24775 1.86064 0.597858 -7.25753 1.78765 -0.552732 -7.26109 -5.42716 -1.94327 11.1556 -5.00264 -11.911 11.0485 -0.0 0.0 -0.0 10.6346 6.83689 20.4145 -8.67635 -42.9275 73.4735 1.84105 -42.3607 0.713422 -22.3407 -1.29729 2.52682 -1.18522 12.8518 -2.17201 -0.0 0.0 -0.0 -2.0674 -6.37823 2.98159 -13.2613 -1.17614 -62.905 0.886811 23.7156 -0.186202 17.6142 -0.280796 2.22369 2.67827 14.6052 -11.8491 0.0 0.0 0.0 -14.7417 -13.1586 -11.4956 -24.5577 0.213765 3.73377 16.258 10.8906 -2.26058 -33.8145 0.0 0.0 -0.0 0.0 -0.0 16.4681 -34.9164 -12.737 -2.96211 -0.110577 -0.441089 -7.92403 16.6553 -1.30294 13.1028 -0.0 -0.0 0.0 0.0 0.0 
1306.06487926 722.089 -1528.67317152 0.218515012838 60.8128024683 11.2842516362 1.36113 -1.10144 -7.03264 1.38838 -0.652857 -7.0881 1.47308 0.671251 -7.08639 1.40337 -0.453428 -7.10356 -8.2189 1.01556 9.49557 -7.95872 -4.8058 9.63648 -0.0 0.0 -0.0 10.4261 10.1163 19.644 -11.9928 -44.6096 73.5429 1.31705 -33.1199 0.391644 -21.4023 -1.22349 2.43191 -2.27109 25.4924 -2.66874 -0.0 0.0 -0.0 -2.13774 -3.89008 3.51523 -6.96911 1.3545 -64.4334 0.443697 12.3964 -0.0481869 13.7816 -0.278189 1.73427 3.34898 20.6185 -13.4712 0.0 0.0 0.0 7.41027 -22.9832 -4.55796 -63.6564 -2.60747 8.91555 16.8438 18.0963 -2.37326 -30.4297 0.0 0.0 -0.0 0.0 -0.0 11.3885 -37.8559 -13.6034 -6.24551 -0.206302 -0.935827 -6.61567 24.6437 -1.17372 14.3344 -0.0 -0.0 0.0 0.0 0.0 
1307.14951691 722.089 -1529.98499794 0.210986741191 59.6643327997 11.2929233277 1.36113 -1.10144 -7.03264 1.38838 -0.652857 -7.0881 1.47308 0.671251 -7.08639 1.40337 -0.453428 -7.10356 -8.2189 1.01556 9.49557 -7.95872 -4.8058 9.63648 -0.0 0.0 -0.0 10.4261 10.1163 19.644 -11.9928 -44.6096 73.5429 1.31705 -33.1199 0.391644 -21.4023 -1.22349 2.43191 -2.27109 25.4924 -2.66874 -0.0 0.0 -0.0 -2.13774 -3.89008 3.51523 -6.96911 1.3545 -64.4334 0.443697 12.3964 -0.0481869 13.7816 -0.278189 1.73427 3.34898 20.6185 -13.4712 0.0 0.0 0.0 7.41027 -22.9832 -4.55796 -63.6564 -2.60747 8.91555 16.8438 18.0963 -2.37326 -30.4297 0.0 0.0 -0.0 0.0 -0.0 11.3885 -37.8559 -13.6034 -6.24551 -0.206302 -0.935827 -6.61567 24.6437 -1.17372 14.3344 -0.0 -0.0 0.0 0.0 0.0 
1287.01778175 722.753 -1543.9605316 -0.595431730351 60.3917797984 11.3380503087 1.544 -1.14105 -7.10152 1.57177 -0.688034 -7.15933 1.66039 0.626149 -7.16498 1.58919 -0.510289 -7.17411 -8.03722 3.11983 7.45636 -7.88193 0.543196 8.0647 -0.0 0.0 -0.0 10.5342 7.70785 20.1261 -13.4957 -43.731 74.4805 1.15185 -29.7078 0.305501 -19.0063 -1.04225 2.1843 -1.82638 26.8268 0.451425 -0.0 0.0 -0.0 -2.21822 -2.34417 3.91718 -6.12706 2.51273 -63.7233 0.49683 13.8267 -0.0602411 14.4207 -0.280897 1.81585 3.61918 20.935 -15.1367 0.0 0.0 0.0 7.84241 -23.7779 -3.35649 -63.1677 -2.55157 8.86491 15.2707 18.8473 -2.1703 -30.1424 0.0 0.0 -0.0 0.0 -0.0 11.6686 -37.0675 -11.8531 -8.06823 -0.247151 -1.21254 -3.32637 23.0996 -0.575978 17.0899 -0.0 -0.0 0.0 0.0 0.0 
1255.45581878 728.071 -1568.88567301 -1.13363007382 61.8035309513 10.5173285295 1.32434 -1.159 -6.62899 1.34846 -0.735795 -6.68894 1.43838 0.518904 -6.70916 1.37604 -0.544746 -6.70712 -7.73391 3.41272 8.27188 -7.54279 0.46227 8.94226 -0.0 0.0 -0.0 10.8515 3.60585 21.157 -15.9171 -40.8321 73.9388 0.808737 -21.8321 0.155976 -14.7183 -0.744426 1.72327 -1.46428 27.4967 2.7451 -0.0 0.0 -0.0 -2.3476 1.78698 4.83084 -3.46596 3.53038 -64.6394 0.67375 18.4568 -0.109468 15.0486 -0.282673 1.89603 4.23866 21.5424 -19.0446 0.0 0.0 0.0 11.3606 -22.7621 -2.49364 -65.1393 -2.77974 9.06629 16.0001 18.4066 -2.2642 -28.2088 0.0 0.0 -0.0 0.0 -0.0 9.30303 -41.9454 -10.5465 -10.0838 -0.282047 -1.51985 3.22385 27.3038 0.575253 20.0921 -0.0 -0.0 0.0 0.0 0.0 
1224.98243233 735.27 -1594.6481816 0.876610286453 62.5087522297 8.17035774442 1.21637 -0.939528 -6.4403 1.23927 -0.528694 -6.48677 1.30327 0.70133 -6.47045 1.24505 -0.32713 -6.49999 -7.19482 3.98913 10.7118 -6.87292 -0.323608 11.5111 -0.0 0.0 -0.0 10.886 2.37266 21.33 -21.172 -37.6399 72.5298 0.760712 -20.6481 0.138577 -11.7171 -0.556964 1.38812 -0.300113 26.9659 8.95011 -0.0 0.0 -0.0 -1.66086 4.78949 3.91131 -4.82336 5.50621 -63.9899 0.91879 24.4719 -0.199257 13.7901 -0.278231 1.73535 4.71416 22.9186 -21.5428 0.0 0.0 0.0 16.1991 -19.4471 -4.41419 -67.1781 -3.02287 9.26623 14.2112 17.5157 -2.01896 -26.8446 0.0 0.0 -0.0 0.0 -0.0 7.46489 -42.3409 -9.7214 -14.4533 -0.320465 -2.18901 6.99912 28.6512 1.25319 22.9784 -0.0 -0.0 0.0 0.0 0.0 
1204.77845828 735.458 -1611.90000976 1.57355783585 61.3206640452 6.7390200302 0.990519 -0.938606 -6.19134 1.01166 -0.543518 -6.23827 1.07607 0.664466 -6.2266 1.02216 -0.325264 -6.25339 -6.43666 4.1636 12.2439 -6.01364 -1.28731 13.1233 -0.0 0.0 -0.0 10.3822 2.60456 20.2818 -22.2291 -34.8568 73.0421 0.716874 -19.5509 0.123511 -11.3384 -0.534567 1.34515 -0.429023 26.5438 8.07028 -0.0 0.0 -0.0 -1.5176 4.61181 3.59699 -5.44142 5.23325 -63.5829 1.13189 29.2786 -0.295673 14.4551 -0.281018 1.82024 4.65749 22.206 -21.568 0.0 0.0 0.0 14.7571 -18.8271 -3.82149 -66.1357 -2.89766 9.16507 15.6407 16.7874 -2.20529 -24.5684 0.0 0.0 -0.0 0.0 -0.0 5.87226 -41.8924 -9.21241 -14.7616 -0.321247 -2.23631 8.86211 27.3269 1.54869 24.919 -0.0 -0.0 0.0 0.0 0.0 
1190.18851651 736.507 -1629.81804445 1.49173616436 60.6636633503 6.56572917817 0.92965 -1.03036 -5.94983 0.949096 -0.650365 -6.00307 1.02267 0.519267 -6.01579 0.972474 -0.435558 -6.0224 -7.03694 3.60726 12.785 -6.5714 -2.58319 13.5309 -0.0 0.0 -0.0 10.2911 2.91175 20.0748 -26.2057 -33.9031 71.4446 0.743601 -20.2217 0.132602 -11.1123 -0.52133 1.31942 0.000682399 26.7277 10.55 -0.0 0.0 -0.0 -1.5087 5.15347 3.65557 -2.55418 5.77297 -64.1534 1.40584 34.8519 -0.441285 14.0552 -0.27946 1.76919 4.66714 22.4421 -21.4969 0.0 0.0 0.0 15.0125 -16.3836 -5.58792 -64.9589 -2.75858 9.0482 14.6941 16.3658 -2.07692 -24.6863 0.0 0.0 -0.0 0.0 -0.0 4.17583 -41.2194 -9.53253 -14.401 -0.320307 -2.181 11.1679 29.2959 1.98134 27.4723 -0.0 -0.0 0.0 0.0 0.0 
1195.85814522 736.507 -1636.24976381 1.40299320315 58.6061301161 6.66856461771 0.92965 -1.03036 -5.94983 0.949096 -0.650365 -6.00307 1.02267 0.519267 -6.01579 0.972474 -0.435558 -6.0224 -7.03694 3.60726 12.785 -6.5714 -2.58319 13.5309 -0.0 0.0 -0.0 10.2911 2.91175 20.0748 -26.2057 -33.9031 71.4446 0.743601 -20.2217 0.132602 -11.1123 -0.52133 1.31942 0.000682399 26.7277 10.55 -0.0 0.0 -0.0 -1.5087 5.15347 3.65557 -2.55418 5.77297 -64.1534 1.40584 34.8519 -0.441285 14.0552 -0.27946 1.76919 4.66714 22.4421 -21.4969 0.0 0.0 0.0 15.0125 -16.3836 -5.58792 -64.9589 -2.75858 9.0482 14.6941 16.3658 -2.07692 -24.6863 0.0 0.0 -0.0 0.0 -0.0 4.17583 -41.2194 -9.53253 -14.401 -0.320307 -2.181 11.1679 29.2959 1.98134 27.4723 -0.0 -0.0 0.0 0.0 0.0 
